<svg width="30" height="30" xmlns="http://www.w3.org/2000/svg" xmlns:xlink="http://www.w3.org/1999/xlink" xml:space="preserve" overflow="hidden"><g transform="translate(-1166 -680)"><path d="M1180.72 686.156C1180 686.156 1179.41 686.75 1179.41 687.469 1179.41 688.188 1180 688.781 1180.72 688.781 1181.44 688.781 1182.03 688.188 1182.03 687.469 1182.03 686.75 1181.44 686.156 1180.72 686.156Z" fill="#C42828"/><path d="M1178.09 693.812C1178.09 694.537 1177.51 695.125 1176.78 695.125 1176.06 695.125 1175.47 694.537 1175.47 693.812 1175.47 693.088 1176.06 692.5 1176.78 692.5 1177.51 692.5 1178.09 693.088 1178.09 693.812Z" fill="#C42828"/><path d="M1184.44 687.906 1183.66 688.281C1183.59 688.531 1183.47 688.75 1183.34 688.969L1183.62 689.781 1183 690.406 1182.19 690.125C1181.97 690.25 1181.75 690.344 1181.5 690.406L1181.12 691.156 1180.25 691.156 1179.88 690.375C1179.62 690.312 1179.41 690.219 1179.19 690.094L1178.38 690.375 1177.75 689.75 1178.03 688.938C1177.91 688.719 1177.81 688.5 1177.75 688.25L1176.97 687.875 1176.97 687 1177.75 686.625C1177.81 686.375 1177.91 686.156 1178.03 685.938L1177.78 685.125 1178.41 684.5 1179.22 684.781C1179.44 684.656 1179.66 684.562 1179.91 684.5L1180.28 683.719 1181.16 683.719 1181.53 684.469C1181.78 684.531 1182 684.625 1182.22 684.75L1183.03 684.469 1183.66 685.094 1183.38 685.906C1183.5 686.125 1183.59 686.344 1183.66 686.594L1184.44 686.969 1184.44 687.906ZM1180.5 694.25 1179.72 694.625C1179.66 694.875 1179.56 695.094 1179.44 695.312L1179.69 696.125 1179.06 696.75 1178.25 696.469C1178.03 696.594 1177.81 696.688 1177.56 696.75L1177.22 697.5 1176.34 697.5 1175.97 696.719C1175.72 696.656 1175.5 696.562 1175.28 696.438L1174.47 696.688 1173.84 696.062 1174.12 695.25C1174 695.031 1173.91 694.812 1173.84 694.562L1173.06 694.188 1173.06 693.312 1173.84 692.938C1173.91 692.688 1174 692.469 1174.12 692.25L1173.84 691.438 1174.47 690.812 1175.28 691.094C1175.5 690.969 1175.72 690.875 1175.97 690.812L1176.34 690.031 1177.25 690.031 1177.62 690.812C1177.88 690.875 1178.09 690.969 1178.31 691.094L1179.12 690.812 1179.75 691.438 1179.47 692.25C1179.59 692.469 1179.69 692.688 1179.75 692.938L1180.53 693.312 1180.5 694.25 1180.5 694.25ZM1191.31 695.406 1189.16 691.656 1189.16 691.5C1189.28 688.062 1187.53 684.844 1184.56 683.062 1181.59 681.312 1177.94 681.312 1174.97 683.062 1172 684.812 1170.25 688.062 1170.38 691.5 1170.38 694.469 1171.72 697.25 1174.06 699.062L1174.06 706.969 1183.94 706.969 1183.94 703.219 1185.47 703.219C1186.47 703.219 1187.41 702.812 1188.09 702.125 1188.78 701.406 1189.16 700.469 1189.16 699.469L1189.16 697.594 1190.53 697.594C1191.34 697.5 1192.06 696.562 1191.31 695.406Z" fill="#C42828"/></g></svg>