<svg width="380" height="78" xmlns="http://www.w3.org/2000/svg" xmlns:xlink="http://www.w3.org/1999/xlink" xml:space="preserve" overflow="hidden"><defs><clipPath id="clip0"><rect x="3645" y="1967" width="380" height="78"/></clipPath><clipPath id="clip1"><rect x="3645" y="1975" width="53" height="54"/></clipPath><clipPath id="clip2"><rect x="3645" y="1975" width="53" height="54"/></clipPath><clipPath id="clip3"><rect x="3645" y="1975" width="53" height="54"/></clipPath></defs><g clip-path="url(#clip0)" transform="translate(-3645 -1967)"><text fill="#BFBFBF" font-family="Calibri,Calibri_MSFontService,sans-serif" font-weight="400" font-size="37" transform="matrix(1 0 0 1 3697.06 2013)">Regenerate Answer</text><g clip-path="url(#clip1)"><g clip-path="url(#clip2)"><g clip-path="url(#clip3)"><path d="M11.3208 31.1999 21.7208 20.8 15.925 20.8C17.8208 17.1166 21.6666 14.5708 26.1083 14.5708 28.9791 14.5708 31.6333 15.6541 33.6374 17.4416L44.1999 17.4416C41.0041 10.6166 34.0708 5.95832 26.1083 5.95832 16.8458 5.95832 9.04582 12.2416 6.77082 20.8L0.920832 20.8 11.3208 31.1999Z" fill="#BFBFBF" transform="matrix(1 0 0 1.00001 3645 1976)"/><path d="M51.2416 31.1999 40.8416 20.8 30.4416 31.1999 36.2916 31.1999C34.3958 34.8833 30.5499 37.4291 26.1083 37.4291 23.2375 37.4291 20.5833 36.3458 18.5791 34.5583L7.96248 34.5583C11.2125 41.3833 18.0916 46.0416 26.1083 46.0416 35.3708 46.0416 43.1707 39.7583 45.4457 31.1999L51.2416 31.1999Z" fill="#BFBFBF" transform="matrix(1 0 0 1.00001 3645 1976)"/></g></g></g></g></svg>