<svg width="11" height="11" xmlns="http://www.w3.org/2000/svg" xmlns:xlink="http://www.w3.org/1999/xlink" xml:space="preserve" overflow="hidden"><defs><clipPath id="clip0"><rect x="1216" y="603" width="11" height="11"/></clipPath></defs><g clip-path="url(#clip0)" transform="translate(-1216 -603)"><path d="M1224.53 611.399 1222.46 610.689 1222.45 610.689 1221.63 610.402 1225.49 605.303 1224.53 611.399ZM1221.95 611.009 1221.19 611.766 1221.4 610.826 1221.95 611.009 1221.95 611.009ZM1221.03 610.425C1221.01 610.448 1221 610.482 1220.98 610.517L1220.95 610.666 1220.72 611.708 1220.17 610.104 1224.46 605.979 1221.17 610.253 1221.03 610.425ZM1217.72 609.073 1224.43 605.498 1219.84 609.795 1217.72 609.073ZM1225.99 604.306C1225.92 604.249 1225.82 604.249 1225.74 604.295L1217.04 608.912C1216.96 608.958 1216.92 609.039 1216.92 609.13 1216.92 609.222 1216.99 609.302 1217.07 609.325L1219.45 610.139 1219.75 610.242 1219.82 610.436 1220.53 612.568 1220.53 612.579 1220.53 612.591C1220.55 612.659 1220.62 612.717 1220.7 612.74 1220.78 612.763 1220.86 612.74 1220.92 612.682L1220.93 612.671 1221 612.602 1222.44 611.181 1224.64 611.938C1224.71 611.96 1224.78 611.949 1224.83 611.915 1224.89 611.88 1224.94 611.823 1224.95 611.754L1226.09 604.535C1226.11 604.432 1226.06 604.352 1225.99 604.306Z" fill="#A6A6A6"/></g></svg>